inDegrees=yes
name=ik_S56_A02_T02
DataType=double
version=3
OpenSimVersion=4.3-2021-08-27-4bc7ad9
endheader
time	pelvis_tilt	pelvis_list	pelvis_rotation	pelvis_tx	pelvis_ty	pelvis_tz	hip_flexion_r	hip_adduction_r	hip_rotation_r	knee_angle_r	knee_angle_r_beta	ankle_angle_r	subtalar_angle_r	mtp_angle_r	hip_flexion_l	hip_adduction_l	hip_rotation_l	knee_angle_l	knee_angle_l_beta	ankle_angle_l	subtalar_angle_l	mtp_angle_l	lumbar_extension	lumbar_bending	lumbar_rotation	arm_flex_r	arm_add_r	arm_rot_r	elbow_flex_r	pro_sup_r	wrist_flex_r	wrist_dev_r	arm_flex_l	arm_add_l	arm_rot_l	elbow_flex_l	pro_sup_l	wrist_flex_l	wrist_dev_l
29.87999999999945	0.3485671757848063	-7.658742079160066	87.19000646144505	0	0.9399999999999999	0	18.9549423798446	2.145626899444073	-8.968079737844286	-1.338786528522257	-0.02336623290405836	0	0	0	4.440527143707534	1.139381244643979	-3.45698679296861	17.296958382792	0.3018888743601541	0	0	0	0	0	0	37.49978155740454	-37.49978155740454	4.786176676526561	82.19037566469606	85.21382358871111	0	0	37.49978155740454	-37.49978155740454	4.786176676526561	82.19037566469606	85.21382358867065	0	0
29.89999999999945	0.9602763000365162	-7.516015016842601	86.10901293773296	0	0.9399999999999999	0	18.68713703811717	2.980827924749621	-8.158078565624551	1.957244886826969	0.03416036754295439	0	0	0	4.626797242378264	0.7005874335857959	-4.080632659326199	15.78364045856548	0.2754764939529553	0	0	0	0	0	0	37.50452408736536	-37.50452408736536	4.786447627394279	82.1939389942671	85.21355263785607	0	0	37.50452408736536	-37.50452408736536	4.786447627394279	82.1939389942671	85.2135526378157	0	0
29.91999999999945	1.181662208850924	-7.490763750620425	85.69733993727571	0	0.9399999999999999	0	18.62782707838198	3.201174136747399	-7.966611345241547	2.015375968045908	0.03517494630796913	0	0	0	4.975382262098601	0.5815943629561739	-4.168523214150012	14.80937742353836	0.2584723962112592	0	0	0	0	0	0	37.50623273842715	-37.50623273842715	4.786545384299692	82.19522461953036	85.21345488095527	0	0	37.50623273842715	-37.50623273842715	4.786545384299692	82.19522461953036	85.21345488091488	0	0
29.93999999999945	1.319550091897898	-7.489810874545366	85.30971783779438	0	0.9399999999999999	0	18.32596837218506	2.75514938254076	-7.342770421080098	9.811025205658266	0.1712346928348905	0	0	0	5.364203553615447	0.4504769314528336	-4.491919008074528	13.9266749773506	0.2430663322098746	0	0	0	0	0	0	37.72143561455977	-37.72143561455977	4.796961553234704	82.33214623073354	85.20303871249449	0	0	37.72143561455977	-37.72143561455977	4.796961553234704	82.33214623073354	85.20303871245609	0	0
29.95999999999945	1.39383692737006	-7.46554258495738	85.03727465313895	0	0.9399999999999999	0	17.92479569713118	2.79849553746898	-6.00163447944772	9.273744730633938	0.1618573795390369	0	0	0	5.717186310893148	0.3366672605394403	-4.742314274661982	13.10101303194203	0.2286558127540734	0	0	0	0	0	0	37.72322073375273	-37.72322073375273	4.797061610321842	82.33346197138523	85.20293865541204	0	0	37.72322073375273	-37.72322073375273	4.797061610321842	82.33346197138523	85.2029386553737	0	0
29.97999999999945	1.404816926854416	-7.400403632259338	84.86676039547658	0	0.9399999999999999	0	17.35546017231895	2.661549192134372	-5.530340436811993	8.798852874410281	0.1535689530570265	0	0	0	5.636331442136609	0.4066385261676105	-5.04037122704816	11.86907551277266	0.2071544468657171	0	0	0	0	0	0	37.72460130253623	-37.72460130253623	4.797138499882288	82.33447304637463	85.2028617658552	0	0	37.72460130253623	-37.72460130253623	4.797138499882288	82.33447304637463	85.20286176581686	0	0
29.99999999999945	1.405286795521556	-7.33036962569121	84.86693963353773	0	0.9399999999999999	0	16.5343688774852	0.8745382554717053	-4.447592582736101	26.92356917163111	0.4699049284334051	0	0	0	5.874077163033144	0.3327330451550324	-5.230517686533247	12.20847208231089	0.2130780344741332	0	0	0	0	0	0	37.92696268533643	-37.92696268533643	4.806677989254863	82.45986298332572	85.19332227691521	0	0	37.92696268533643	-37.92696268533643	4.806677989254863	82.45986298332572	85.19332227687866	0	0
30.01999999999945	1.269520111998895	-7.044600859803193	84.80581407007573	0	0.9399999999999999	0	15.33489322166174	0.1350697368179576	-3.666077564979155	26.07755425209148	0.4551391825664438	0	0	0	5.597493217612776	0.479554612690455	-5.283474531999484	12.18820865629526	0.2127243709724262	0	0	0	0	0	0	37.92949957634637	-37.92949957634637	4.806817099613264	82.46169209683438	85.19318316656329	0	0	37.92949957634637	-37.92949957634637	4.806817099613264	82.46169209683438	85.19318316652679	0	0
30.03999999999945	1.138846447691227	-7.039988901830397	84.91195251838292	0	0.9399999999999999	0	13.91124665205222	-0.5050048661390936	-4.673471172408102	29.88758670767783	0.5216367935242702	0	0	0	7.00043992457869	0.4664711336103684	-7.790157911032026	11.02763101109074	0.1924684698385647	0	0	0	0	0	0	37.98476026415894	-37.98476026415894	4.809394054296567	82.49556338883085	85.19060621199654	0	0	37.98476026415894	-37.98476026415894	4.809394054296567	82.49556338883085	85.19060621196053	0	0
30.05999999999945	0.8526135697648775	-7.123777644372012	85.41849209125408	0	0.9399999999999999	0	12.56277686228871	-1.153009075967887	-5.706632816185841	31.58070188260761	0.5511872279422745	0	0	0	8.088878486887561	0.8171900234855869	-7.705843759628869	12.01585131858483	0.2097161679394074	0	0	0	0	0	0	37.98730871829451	-37.98730871829451	4.809532388527101	82.49738223620646	85.19046787777245	0	0	37.98730871829451	-37.98730871829451	4.809532388527101	82.49738223620646	85.19046787773647	0	0
30.07999999999945	0.7410384769536106	-7.175545438158861	85.94924231058557	0	0.9399999999999999	0	11.27610272660818	-1.91478699021517	-5.640635148218608	33.43975340185631	0.5836337979173671	0	0	0	9.309080241224743	1.122085427722411	-7.201530463620761	12.1226580859308	0.2115802976930062	0	0	0	0	0	0	37.98942331908221	-37.98942331908221	4.809647317998837	82.49889335590967	85.19035294830604	0	0	37.98942331908221	-37.98942331908221	4.809647317998837	82.49889335590967	85.19035294827007	0	0
30.09999999999945	0.9574958426141976	-7.148671854430104	86.38315481018356	0	0.9399999999999999	0	9.953491893794039	-1.978492423713046	-5.184701827905361	35.17001692530391	0.6138325933286859	0	0	0	10.36572755844823	0.9757965139799576	-6.699274943211295	13.14297353805198	0.2293881617414952	0	0	0	0	0	0	37.99192699265257	-37.99192699265257	4.809783624010497	82.50068554448394	85.19021664230074	0	0	37.99192699265257	-37.99192699265257	4.809783624010497	82.50068554448394	85.1902166422648	0	0
30.11999999999945	1.352771220446479	-7.009188893007293	86.67263234170406	0	0.9399999999999999	0	8.445623492113556	-1.713099258078691	-4.769299115049978	36.33806274622116	0.6342188387178519	0	0	0	11.07863219303062	0.7100539907730586	-6.435849400043287	13.95386956233032	0.2435409672564842	0	0	0	0	0	0	37.9945661782966	-37.9945661782966	4.809927318747551	82.50257488104951	85.19007294757027	0	0	37.9945661782966	-37.9945661782966	4.809927318747551	82.50257488104951	85.19007294753442	0	0
30.13999999999945	1.745398970136941	-6.839691078548507	86.73493133174865	0	0.9399999999999999	0	6.963870401491474	-1.063696447228143	-3.940394564393173	36.03148371465359	0.6288680251994221	0	0	0	11.56934873257196	0.3729855813277984	-6.52496410809227	14.61049747837939	0.2550012863520494	0	0	0	0	0	0	37.99767796437083	-37.99767796437083	4.810096920486568	82.50480485234367	85.18990334583914	0	0	37.99767796437083	-37.99767796437083	4.810096920486568	82.50480485234367	85.18990334580334	0	0
30.15999999999945	2.017196283654521	-6.619384485043231	86.63261898857516	0	0.9399999999999999	0	6.764833762022469	-0.829186415267917	-3.536794558683066	38.87013942655869	0.6784119137027098	0	0	0	11.94200504768625	0.02671226555807443	-6.876361575613525	15.24471305618277	0.2660704363521566	0	0	0	0	0	0	38.00116421898708	-38.00116421898708	4.810285920389224	82.50728984654546	85.18971434594522	0	0	38.00116421898708	-38.00116421898708	4.810285920389224	82.50728984654546	85.18971434590941	0	0
30.17999999999945	2.048055834924575	-6.395198113977838	86.53590066987262	0	0.9399999999999999	0	5.199040184216249	-0.5961593031234967	-2.515500114196374	38.75609356695427	0.6764214379543454	0	0	0	12.40615531803243	-0.08260150746469366	-6.843115068461559	11.78140667450469	0.2056243369865427	0	0	0	0	0	0	37.95535409586279	-37.95535409586279	4.808207607381611	82.47997436913241	85.19179265885926	0	0	37.95535409586279	-37.95535409586279	4.808207607381611	82.47997436913241	85.19179265882306	0	0
